<svg width="44" height="44" viewBox="0 0 44 44" fill="none" xmlns="http://www.w3.org/2000/svg">
<path d="M38.4442 24.4957C38.4442 23.9986 38.0412 23.5957 37.5442 23.5957C37.0471 23.5957 36.6442 23.9986 36.6442 24.4957H38.4442ZM29.1401 36.6439C28.6431 36.6439 28.2401 37.0469 28.2401 37.5439C28.2401 38.041 28.6431 38.4439 29.1401 38.4439V36.6439ZM15.3881 38.4439C15.8852 38.4439 16.2881 38.041 16.2881 37.5439C16.2881 37.0469 15.8852 36.6439 15.3881 36.6439V38.4439ZM7.88413 24.4957C7.88413 23.9986 7.48119 23.5957 6.98413 23.5957C6.48707 23.5957 6.08413 23.9986 6.08413 24.4957H7.88413ZM36.6442 24.4957V29.8685H38.4442V24.4957H36.6442ZM36.6442 29.8685C36.6442 33.6144 33.6226 36.6439 29.9041 36.6439V38.4439C34.6246 38.4439 38.4442 34.6006 38.4442 29.8685H36.6442ZM29.9041 36.6439H29.1401V38.4439H29.9041V36.6439ZM15.3881 36.6439H14.6241V38.4439H15.3881V36.6439ZM14.6241 36.6439C10.9057 36.6439 7.88413 33.6144 7.88413 29.8685H6.08413C6.08413 34.6006 9.9037 38.4439 14.6241 38.4439V36.6439ZM7.88413 29.8685V24.4957H6.08413V29.8685H7.88413Z" fill="#F6F7F8"/>
<path d="M6.08413 15.2853C6.08413 15.7823 6.48707 16.1853 6.98413 16.1853C7.48119 16.1853 7.88413 15.7823 7.88413 15.2853H6.08413ZM15.3881 7.74229C15.8852 7.74229 16.2881 7.33934 16.2881 6.84229C16.2881 6.34523 15.8852 5.94229 15.3881 5.94229V7.74229ZM29.1401 5.94229C28.6431 5.94229 28.2401 6.34523 28.2401 6.84229C28.2401 7.33934 28.6431 7.74229 29.1401 7.74229V5.94229ZM36.6442 15.2853C36.6442 15.7823 37.0471 16.1853 37.5442 16.1853C38.0412 16.1853 38.4442 15.7823 38.4442 15.2853H36.6442ZM7.88413 15.2853V14.5177H6.08413V15.2853H7.88413ZM7.88413 14.5177C7.88413 10.7718 10.9057 7.74229 14.6241 7.74229V5.94229C9.9037 5.94229 6.08413 9.78557 6.08413 14.5177H7.88413ZM14.6241 7.74229H15.3881V5.94229H14.6241V7.74229ZM29.1401 7.74229H29.9041V5.94229H29.1401V7.74229ZM29.9041 7.74229C33.6226 7.74229 36.6442 10.7718 36.6442 14.5177H38.4442C38.4442 9.78557 34.6246 5.94229 29.9041 5.94229V7.74229ZM36.6442 14.5177V15.2853H38.4442V14.5177H36.6442Z" fill="#F6F7F8" fill-opacity="0.72"/>
<path fill-rule="evenodd" clip-rule="evenodd" d="M3.92798 23.7281H40.6Z" fill="#F6F7F8"/>
<path d="M3.92798 23.7281H40.6" stroke="#F6F7F8" stroke-width="1.8" stroke-linecap="round"/>
<path d="M31.2779 22.3467L31.2794 26.7984C31.2794 29.1693 29.4347 31.1072 27.1086 31.2426L26.8482 31.2502H17.6802C15.3203 31.2502 13.3913 29.3969 13.2565 27.06L13.249 26.7984V22.3467H31.2779Z" fill="#F6F7F8"/>
<path d="M26.8482 13.1361C29.2081 13.1361 31.1371 14.9894 31.2719 17.3263L31.2767 18.8753C31.2774 19.0967 31.0981 19.2765 30.8767 19.2765H13.649C13.4281 19.2765 13.249 19.0974 13.249 18.8765V17.5879C13.249 15.2171 15.0938 13.2791 17.4199 13.1437L26.8482 13.1361Z" fill="#F6F7F8" fill-opacity="0.72"/>
</svg>
