<svg width="24" height="24" viewBox="0 0 24 24" fill="none" xmlns="http://www.w3.org/2000/svg">
<path d="M12 0C5.3832 0 0 5.38327 0 12.0001C0 18.6169 5.3832 24 12 24C18.6168 24 24 18.6169 24 12.0001C24 5.38327 18.6168 0 12 0ZM12 21.8182C6.58618 21.8182 2.18182 17.4138 2.18182 12.0001C2.18182 6.58633 6.58618 2.18182 12 2.18182C17.4138 2.18182 21.8182 6.58633 21.8182 12.0001C21.8182 17.4138 17.4137 21.8182 12 21.8182Z" fill="white"/>
<path d="M11.9998 5.0909C11.1979 5.0909 10.5455 5.7437 10.5455 6.5461C10.5455 7.34778 11.1979 7.99999 11.9998 7.99999C12.8017 7.99999 13.4541 7.34778 13.4541 6.5461C13.4541 5.7437 12.8017 5.0909 11.9998 5.0909Z" fill="white"/>
<path d="M11.9999 10.1818C11.3975 10.1818 10.909 10.6703 10.909 11.2727V17.8182C10.909 18.4207 11.3975 18.9091 11.9999 18.9091C12.6024 18.9091 13.0908 18.4207 13.0908 17.8182V11.2727C13.0908 10.6703 12.6024 10.1818 11.9999 10.1818Z" fill="white"/>
</svg>
