<svg width="20" height="22" viewBox="0 0 20 22" fill="none" xmlns="http://www.w3.org/2000/svg">
<path fill-rule="evenodd" clip-rule="evenodd" d="M6.31755 0.0398299C6.95083 -0.126049 7.60176 0.241334 7.77145 0.860402L8.09942 2.05803C11.4997 1.73923 14.7375 3.85621 15.651 7.1888L17.0107 12.1459C18.2286 12.5653 19.0571 13.3383 19.3779 14.5087C20.1534 17.3378 17.1726 19.6058 12.1993 21.0321L11.5089 21.2213L11.1519 21.3126C5.94539 22.6119 2.05348 22.1462 1.26081 19.2543C0.939987 18.0838 1.26211 17.0094 2.10228 16.0509L0.744465 11.0933C-0.168998 7.76076 1.55225 4.34482 4.66001 2.95894L4.33149 1.76145C4.1618 1.14238 4.53762 0.506059 5.1709 0.34018L6.31755 0.0398299ZM9.67884 14.5447C5.35191 15.6781 2.95938 17.3805 3.32478 18.7137C3.69019 20.0468 6.63295 20.3517 10.9599 19.2183C15.2868 18.0849 17.6794 16.3825 17.3139 15.0494C16.9485 13.7163 14.0058 13.4113 9.67884 14.5447ZM9.86127 15.336L10.4626 15.1745C10.81 16.6751 9.87565 18.1904 8.33107 18.595C7.02844 18.9362 5.69763 18.3811 5.03229 17.3178C6.28329 16.542 7.9264 15.8763 9.86127 15.336Z" fill="#F6F7F8"/>
</svg>
