<svg width="12" height="12" viewBox="0 0 12 12" fill="none" xmlns="http://www.w3.org/2000/svg">
<path d="M8.90178 1.32976C8.86565 1.22771 8.80676 1.13191 8.7251 1.05025C8.64939 0.974536 8.56151 0.918393 8.46776 0.881824C8.38656 0.850073 8.29847 0.832068 8.20635 0.83067C8.20212 0.830606 8.19788 0.830576 8.19365 0.830583C8.00208 0.830868 7.8106 0.904091 7.66444 1.05025L6.38411 2.33058M8.90178 1.32976L6.38411 2.33058M8.90178 1.32976C8.93829 1.43291 8.95155 1.54244 8.94155 1.65023C8.94366 1.6273 8.94474 1.60407 8.94474 1.58058C8.94474 1.49262 8.9296 1.40819 8.90178 1.32976ZM6.38411 2.33058L1.30048 7.41421C1.00759 7.70711 1.00759 8.18198 1.30048 8.47488C1.59337 8.76777 2.06825 8.76777 2.36114 8.47487L8.7251 2.11091C8.80655 2.02947 8.86534 1.93395 8.90149 1.83219C8.79808 2.12265 8.52069 2.33058 8.19474 2.33058H6.38411ZM3.59856 10.773C3.51749 10.6919 3.45885 10.5969 3.42266 10.4956C3.38557 10.3918 3.37205 10.2815 3.38212 10.173C3.38791 10.11 3.4015 10.0493 3.42189 9.99181C3.45802 9.88975 3.51691 9.79395 3.59856 9.7123L9.96252 3.34834C10.2554 3.05544 10.7303 3.05544 11.0232 3.34834C11.3161 3.64123 11.3161 4.1161 11.0232 4.409L5.93955 9.49263H9.07867C9.49289 9.49263 9.82867 9.82841 9.82867 10.2426C9.82867 10.6568 9.49289 10.9926 9.07867 10.9926H4.12892C4.03208 10.9926 3.93952 10.9743 3.85453 10.9408C3.7613 10.9043 3.67391 10.8483 3.59856 10.773Z" stroke="#E8F2FF" stroke-width="1.5" stroke-linecap="round" stroke-linejoin="round"/>
</svg>
