<svg width="17" height="21" viewBox="0 0 17 21" fill="none" xmlns="http://www.w3.org/2000/svg">
<path d="M11.102 9.59524H4.21429M4.21429 13.2143H12.0204M4.21429 16.381H12.0204M13.8571 20H3.14286C2.57454 20 2.02949 19.7776 1.62763 19.3817C1.22576 18.9858 1 18.4488 1 17.8889V3.11111C1 2.55121 1.22576 2.01424 1.62763 1.61833C2.02949 1.22242 2.57454 1 3.14286 1H9.12786C9.41199 1.00006 9.68447 1.11131 9.88536 1.30928L15.6861 7.02406C15.887 7.22196 15.9999 7.4904 16 7.77033V17.8889C16 18.4488 15.7742 18.9858 15.3724 19.3817C14.9705 19.7776 14.4255 20 13.8571 20Z" stroke="#B0B9C1" stroke-width="2" stroke-linecap="round" stroke-linejoin="round"/>
</svg>
