<svg width="18" height="18" viewBox="0 0 18 18" fill="none" xmlns="http://www.w3.org/2000/svg">
<circle opacity="0.8" cx="9.02091" cy="9.02082" r="8.47917" fill="#00B167"/>
<path d="M11.4169 5.35558L12.121 5.09747L12.121 5.09747L11.4169 5.35558ZM10.9886 4.91659L10.7125 5.61394L10.7131 5.61416L10.9886 4.91659ZM10.7196 4.86423L10.7264 4.11426C10.3982 4.11129 10.1062 4.32201 10.0057 4.6344C9.90509 4.94679 10.0193 5.28828 10.2876 5.47731L10.7196 4.86423ZM6.8972 4.8642L6.8972 5.6142L6.8972 5.6142L6.8972 4.8642ZM10.712 4.8642L11.1409 4.24894C11.015 4.16123 10.8653 4.1142 10.712 4.1142L10.712 4.8642ZM6.1472 5.6142L6.8972 5.6142L6.8972 5.6142L6.1472 5.6142ZM6.8972 6.3642L6.8972 7.1142L6.8972 7.1142L6.8972 6.3642ZM8.902 6.3642L9.43233 6.89453C9.64683 6.68003 9.71099 6.35744 9.59491 6.07719C9.47882 5.79693 9.20535 5.6142 8.902 5.6142L8.902 6.3642ZM5.27678 9.98943L5.80711 10.5198L5.80711 10.5198L5.27678 9.98943ZM6.33744 11.0501L6.86777 11.5804L6.86777 11.5804L6.33744 11.0501ZM11.243 6.14453L10.7127 5.6142L10.7127 5.6142L11.243 6.14453ZM11.4168 5.87287L10.7129 5.6142L10.7127 5.61471L11.4168 5.87287ZM11.4601 5.676L10.7126 5.61457L10.7126 5.61503L11.4601 5.676ZM10.7127 5.6142L10.7127 5.61369L12.121 5.09747C12.048 4.89814 11.9315 4.71171 11.7733 4.55354L10.7127 5.6142ZM10.7131 5.61416L10.7127 5.6142L11.7733 4.55354C11.6244 4.40466 11.4504 4.29262 11.2641 4.21902L10.7131 5.61416ZM10.7128 5.6142L10.7125 5.61394L11.2646 4.21924C11.0969 4.15284 10.915 4.11597 10.7264 4.11426L10.7128 5.6142ZM10.2876 5.47731L10.9848 5.96866L11.8489 4.7425L11.1516 4.25115L10.2876 5.47731ZM6.8972 5.6142L10.712 5.6142L10.712 4.1142L6.8972 4.1142L6.8972 5.6142ZM6.8972 5.6142L6.8972 5.6142L6.8972 4.1142C6.06878 4.1142 5.3972 4.78577 5.3972 5.6142L6.8972 5.6142ZM6.8972 5.6142L6.8972 5.6142L5.3972 5.6142C5.3972 6.44263 6.06878 7.1142 6.8972 7.1142V5.6142ZM8.902 5.6142L6.8972 5.6142L6.8972 7.1142L8.902 7.1142L8.902 5.6142ZM5.80711 10.5198L9.43233 6.89453L8.37167 5.83387L4.74645 9.4591L5.80711 10.5198ZM5.80711 10.5198L4.74645 9.4591C4.16066 10.0449 4.16066 10.9946 4.74645 11.5804L5.80711 10.5198ZM5.80711 10.5198L4.74645 11.5804C5.33223 12.1662 6.28198 12.1662 6.86777 11.5804L5.80711 10.5198ZM10.7127 5.6142L5.80711 10.5198L6.86777 11.5804L11.7733 6.67486L10.7127 5.6142ZM10.7127 5.61471L10.7127 5.6142L11.7733 6.67486C11.9315 6.51672 12.0479 6.33032 12.121 6.13103L10.7127 5.61471ZM10.7126 5.61503L10.7129 5.6142L12.1208 6.13154C12.1667 6.00657 12.1965 5.87407 12.2076 5.73697L10.7126 5.61503ZM10.7127 5.61369L10.7126 5.61457L12.2076 5.73743C12.2253 5.52236 12.1966 5.30371 12.121 5.09747L10.7127 5.61369ZM11.8457 4.74032L11.1409 4.24894L10.2831 5.47946L10.988 5.97084L11.8457 4.74032Z" fill="#E8F2FF"/>
<path d="M6.8747 12.5506L7.57859 12.2917L7.57859 12.2917L6.8747 12.5506ZM7.29932 12.9875L7.57877 12.2915L7.5782 12.2912L7.29932 12.9875ZM7.57862 13.0412L7.57862 12.2912L7.57862 12.2912L7.57862 13.0412ZM11.3941 13.0412L11.3941 13.7912L11.3941 13.7912L11.3941 13.0412ZM12.1441 12.2912L12.8941 12.2912L12.8941 12.2912L12.1441 12.2912ZM11.3941 11.5412L11.3941 12.2912L11.3941 12.2912L11.3941 11.5412ZM9.38926 11.5412L8.85893 11.0109C8.64443 11.2254 8.58026 11.548 8.69635 11.8282C8.81243 12.1085 9.08591 12.2912 9.38926 12.2912L9.38926 11.5412ZM13.0145 7.91597L13.5448 8.4463L13.5448 8.4463L13.0145 7.91597ZM13.0145 6.85531L12.4842 7.38564L12.4842 7.38564L13.0145 6.85531ZM11.9538 6.85531L12.4842 7.38564L12.4842 7.38564L11.9538 6.85531ZM7.04827 11.7609L6.51794 11.2305L6.51794 11.2305L7.04827 11.7609ZM6.87392 12.0339L7.57841 12.2912L7.5786 12.2907L6.87392 12.0339ZM6.83117 12.2289L7.57861 12.2908L7.57865 12.2904L6.83117 12.2289ZM7.5786 12.2912L7.57859 12.2917L6.17081 12.8095C6.24391 13.0083 6.3602 13.1941 6.51794 13.3519L7.5786 12.2912ZM7.5782 12.2912L7.5786 12.2912L6.51794 13.3519C6.665 13.4989 6.83661 13.6101 7.02045 13.6837L7.5782 12.2912ZM7.57862 12.2912L7.57877 12.2915L7.01988 13.6835C7.19355 13.7532 7.38257 13.7912 7.57862 13.7912L7.57862 12.2912ZM11.3941 12.2912L7.57862 12.2912L7.57862 13.7912L11.3941 13.7912L11.3941 12.2912ZM11.3941 12.2912L11.3941 12.2912L11.3941 13.7912C12.2225 13.7912 12.8941 13.1196 12.8941 12.2912L11.3941 12.2912ZM11.3941 12.2912L11.3941 12.2912L12.8941 12.2912C12.8941 11.4628 12.2225 10.7912 11.3941 10.7912L11.3941 12.2912ZM9.38926 12.2912L11.3941 12.2912L11.3941 10.7912L9.38926 10.7912L9.38926 12.2912ZM12.4842 7.38564L8.85893 11.0109L9.91959 12.0715L13.5448 8.4463L12.4842 7.38564ZM12.4842 7.38564L12.4842 7.38564L13.5448 8.4463C14.1306 7.86051 14.1306 6.91077 13.5448 6.32498L12.4842 7.38564ZM12.4842 7.38564L12.4842 7.38564L13.5448 6.32498C12.959 5.73919 12.0093 5.73919 11.4235 6.32498L12.4842 7.38564ZM7.5786 12.2912L12.4842 7.38564L11.4235 6.32498L6.51794 11.2305L7.5786 12.2912ZM7.5786 12.2907L7.5786 12.2912L6.51794 11.2305C6.35905 11.3894 6.24223 11.5768 6.16924 11.7772L7.5786 12.2907ZM7.57865 12.2904L7.57841 12.2912L6.16942 11.7766C6.12419 11.9005 6.09486 12.0317 6.0837 12.1674L7.57865 12.2904ZM7.57859 12.2917L7.57861 12.2908L6.08374 12.167C6.06584 12.3829 6.09466 12.6025 6.17081 12.8095L7.57859 12.2917Z" fill="#E8F2FF"/>
</svg>
