<svg width="29" height="28" viewBox="0 0 29 28" fill="none" xmlns="http://www.w3.org/2000/svg">
<path fill-rule="evenodd" clip-rule="evenodd" d="M5.0083 15.5C5.0083 15.5 7.42151 12.8313 9.78977 11.7158C12.158 10.6003 15.5 10.8 15.5 10.8V13L21.3608 8.81373C21.9191 8.41491 21.9191 7.58509 21.3608 7.18627L15.5 3V5.5C15.5 5.5 11.044 5.5 8.16468 8C5.28531 10.5 5.0083 15.5 5.0083 15.5Z" fill="#1761C5" stroke="#1761C5" stroke-width="1.8" stroke-linejoin="round"/>
<path fill-rule="evenodd" clip-rule="evenodd" d="M23.9917 14C23.9917 14 21.5785 16.6687 19.2102 17.7842C16.842 18.8997 13.5 18.7 13.5 18.7V16.5L7.63922 20.6863C7.08087 21.0851 7.08087 21.9149 7.63922 22.3137L13.5 26.5V24C13.5 24 17.956 24 20.8353 21.5C23.7147 19 23.9917 14 23.9917 14Z" fill="#1761C5" stroke="#1761C5" stroke-width="1.8" stroke-linejoin="round"/>
</svg>
