<svg width="21" height="26" viewBox="0 0 21 26" fill="none" xmlns="http://www.w3.org/2000/svg">
<path fill-rule="evenodd" clip-rule="evenodd" d="M1.0083 13.5C1.0083 13.5 3.42151 10.8313 5.78977 9.71583C8.15804 8.60031 11.5 8.8 11.5 8.8V11L17.3608 6.81373C17.9191 6.41491 17.9191 5.58509 17.3608 5.18627L11.5 1V3.5C11.5 3.5 7.04404 3.5 4.16468 6C1.28531 8.5 1.0083 13.5 1.0083 13.5Z" fill="#1761C5" stroke="#1761C5" stroke-width="1.8" stroke-linejoin="round"/>
<path fill-rule="evenodd" clip-rule="evenodd" d="M19.9917 12C19.9917 12 17.5785 14.6687 15.2102 15.7842C12.842 16.8997 9.49999 16.7 9.49999 16.7V14.5L3.63922 18.6863C3.08087 19.0851 3.08087 19.9149 3.63922 20.3137L9.49999 24.5V22C9.49999 22 13.956 22 16.8353 19.5C19.7147 17 19.9917 12 19.9917 12Z" fill="#1761C5" stroke="#1761C5" stroke-width="1.8" stroke-linejoin="round"/>
</svg>
