<svg width="20" height="20" viewBox="0 0 20 20" fill="none" xmlns="http://www.w3.org/2000/svg">
<path fill-rule="evenodd" clip-rule="evenodd" d="M9.99979 18.5714C13.9447 18.5714 17.1426 15.4459 17.1426 11.5904C17.1426 8.67249 16.4175 6.9586 14.8402 4.95036C13.7887 3.61152 12.1752 2.43759 9.99979 1.42856C12.0217 5.32653 12.147 7.67173 10.3757 8.46414C8.60447 9.25655 7.30735 8.13134 6.48438 5.08851C4.06608 7.2397 2.85693 9.40701 2.85693 11.5904C2.85693 15.4459 6.0549 18.5714 9.99979 18.5714Z" fill="#F55053" stroke="#F55053" stroke-width="1.14286" stroke-linecap="round" stroke-linejoin="round"/>
<path d="M12.1566 9.52219C13.6981 10.6628 14.423 12.2048 14.3229 14.1378C14.1812 16.8744 12.3047 18.4682 10.0619 18.4315C7.45067 18.3889 5.8214 17.0748 5.93854 13.8929C5.98254 12.6976 6.39608 11.7234 7.17615 10.9766C7.34106 10.8187 7.56429 10.7922 7.7503 10.9085C7.92576 11.0181 8.02711 11.2525 8.00381 11.4947C7.79769 13.6367 9.00184 14.1378 10.0619 13.8929C11.1219 13.648 11.963 12.6655 11.3837 10.3475C11.3177 10.0834 11.3786 9.79582 11.5405 9.60615C11.6891 9.43216 11.9044 9.38572 12.089 9.48015L12.1566 9.52219Z" fill="#FFA080"/>
</svg>
