<svg width="22" height="22" viewBox="0 0 22 22" fill="none" xmlns="http://www.w3.org/2000/svg">
<g clip-path="url(#clip0)">
<path d="M4.87566 13.2949L4.10987 16.1537L1.31093 16.2129C0.474461 14.6614 0 12.8863 0 11C0 9.17593 0.443609 7.45581 1.22994 5.9412H1.23054L3.72238 6.39804L4.81396 8.87493C4.5855 9.54099 4.46097 10.256 4.46097 11C4.46106 11.8075 4.60732 12.5811 4.87566 13.2949Z" fill="#FBBB00"/>
<path d="M21.8079 8.94507C21.9342 9.61048 22.0001 10.2977 22.0001 11C22.0001 11.7875 21.9173 12.5557 21.7596 13.2967C21.2241 15.8183 19.8249 18.0201 17.8866 19.5782L17.886 19.5776L14.7474 19.4175L14.3032 16.6445C15.5894 15.8902 16.5945 14.7098 17.1239 13.2967H11.2419V8.94507H17.2097H21.8079Z" fill="#518EF8"/>
<path d="M17.886 19.5776L17.8866 19.5782C16.0015 21.0934 13.6068 22 11.0001 22C6.81104 22 3.16896 19.6586 1.31104 16.2129L4.87577 13.2949C5.80471 15.7741 8.19631 17.539 11.0001 17.539C12.2052 17.539 13.3343 17.2132 14.3031 16.6445L17.886 19.5776Z" fill="#28B446"/>
<path d="M18.0213 2.53241L14.4578 5.44981C13.4551 4.82307 12.2699 4.46102 11 4.46102C8.13278 4.46102 5.69645 6.30682 4.81405 8.87494L1.23058 5.9412H1.22998C3.06071 2.41154 6.74871 0 11 0C13.669 0 16.1162 0.950726 18.0213 2.53241Z" fill="#F14336"/>
</g>
<defs>
<clipPath id="clip0">
<rect width="22" height="22" fill="white"/>
</clipPath>
</defs>
</svg>
