<svg width="29" height="28" viewBox="0 0 29 28" fill="none" xmlns="http://www.w3.org/2000/svg">
<path fill-rule="evenodd" clip-rule="evenodd" d="M4 12.5431C4 11.6453 4.40206 10.7947 5.09578 10.2249L12.5958 4.06418C13.7025 3.15508 15.2975 3.15508 16.4042 4.06418L23.9042 10.2249C24.5979 10.7947 25 11.6453 25 12.5431V23.5C25 24.6046 24.1046 25.5 23 25.5H18.8409C18.2886 25.5 17.8409 25.0523 17.8409 24.5V20.7917C17.8409 19.6871 16.9455 18.7917 15.8409 18.7917H13.1591C12.0545 18.7917 11.1591 19.6871 11.1591 20.7917V24.5C11.1591 25.0523 10.7114 25.5 10.1591 25.5H6C4.89543 25.5 4 24.6046 4 23.5V13V12.5431Z" stroke="#B0B9C1" stroke-width="1.8" stroke-linejoin="round"/>
</svg>
