<svg width="17" height="21" viewBox="0 0 17 21" fill="none" xmlns="http://www.w3.org/2000/svg">
<path d="M3.14286 20H13.8571C14.4255 20 14.9705 19.7776 15.3724 19.3817C15.7742 18.9858 16 18.4488 16 17.8889V7.77033C15.9999 7.49041 15.887 7.22196 15.6861 7.02406L9.88536 1.30928C9.68447 1.11131 9.41199 1.00006 9.12786 1H3.14286C2.57454 1 2.02949 1.22242 1.62763 1.61833C1.22576 2.01424 1 2.55121 1 3.11111V17.8889C1 18.4488 1.22576 18.9858 1.62763 19.3817C2.02949 19.7776 2.57454 20 3.14286 20Z" fill="#1761C5" stroke="#1761C5" stroke-width="2" stroke-linecap="round" stroke-linejoin="round"/>
<path d="M11.102 9.59521H4.21429M4.21429 13.2143H12.0204M4.21429 16.3809H12.0204" stroke="white" stroke-width="2" stroke-linecap="round" stroke-linejoin="round"/>
</svg>
